<?xml version="1.0" standalone="no"?>
<!DOCTYPE svg PUBLIC "-//W3C//DTD SVG 20010904//EN"
 "http://www.w3.org/TR/2001/REC-SVG-20010904/DTD/svg10.dtd">
<svg version="1.0" xmlns="http://www.w3.org/2000/svg"
 width="322.000000pt" height="322.000000pt" viewBox="0 0 322.000000 322.000000"
 preserveAspectRatio="xMidYMid meet">
<metadata>
Created by potrace 1.11, written by Peter Selinger 2001-2013
</metadata>
<g transform="translate(0.000000,322.000000) scale(0.100000,-0.100000)"
fill="#000000" stroke="none">
<path d="M720 3050 l0 -170 160 0 160 0 0 170 0 170 -160 0 -160 0 0 -170z"/>
<path d="M0 2560 l0 -160 1000 0 1000 0 0 -160 0 -160 -1000 0 -1000 0 0 -160
0 -160 1160 0 1160 0 0 320 0 320 450 0 450 0 0 160 0 160 -1610 0 -1610 0 0
-160z"/>
<path d="M0 640 l0 -160 1610 0 1610 0 0 160 0 160 -1610 0 -1610 0 0 -160z"/>
<path d="M720 160 l0 -160 160 0 160 0 0 160 0 160 -160 0 -160 0 0 -160z"/>
</g>
</svg>
